<?xml version="1.0" standalone="no"?>
<!DOCTYPE svg PUBLIC "-//W3C//DTD SVG 20010904//EN"
 "http://www.w3.org/TR/2001/REC-SVG-20010904/DTD/svg10.dtd">
<svg version="1.0" xmlns="http://www.w3.org/2000/svg"
 width="1094.000000pt" height="1094.000000pt" viewBox="0 0 1094.000000 1094.000000"
 preserveAspectRatio="xMidYMid meet">
<metadata>
Created by potrace 1.14, written by Peter Selinger 2001-2017
</metadata>
<g transform="translate(0.000000,1094.000000) scale(0.100000,-0.100000)"
fill="#000000" stroke="none">
<path d="M10920 5480 l0 -5460 -5460 0 c-3633 0 -5460 -3 -5460 -10 0 -7 1830
-10 5470 -10 l5470 0 0 5470 c0 3640 -3 5470 -10 5470 -7 0 -10 -1827 -10
-5460z"/>
<path d="M2051 10255 c-55 -16 -118 -55 -128 -80 -2 -8 -22 -16 -43 -20 -41
-7 -130 -58 -130 -74 0 -6 -20 -24 -45 -41 -67 -46 -100 -109 -100 -190 1 -77
16 -109 90 -195 75 -87 145 -190 185 -270 24 -50 62 -99 130 -171 97 -102 179
-212 339 -454 110 -165 200 -277 263 -325 27 -20 55 -49 63 -65 9 -17 27 -37
41 -46 14 -9 31 -31 38 -48 14 -32 167 -215 419 -499 78 -89 211 -241 294
-337 82 -96 191 -218 240 -270 49 -52 114 -133 145 -180 55 -83 183 -243 281
-351 62 -68 196 -258 230 -325 30 -60 57 -157 57 -208 0 -27 3 -34 15 -30 17
7 18 4 34 -81 12 -65 9 -80 -61 -270 -16 -44 -30 -87 -32 -95 -2 -8 -22 -49
-44 -90 -123 -228 -204 -651 -168 -875 4 -22 14 -85 22 -140 16 -108 27 -156
80 -370 20 -77 39 -142 42 -145 14 -9 71 -145 74 -174 2 -24 10 -32 42 -42 77
-27 120 -3 265 151 35 36 127 177 137 208 4 12 20 37 35 55 16 18 29 37 29 42
0 22 27 8 44 -22 11 -18 30 -42 43 -53 20 -17 24 -31 27 -90 2 -63 44 -242 96
-410 10 -33 28 -109 40 -170 12 -60 27 -119 35 -130 19 -31 95 -261 99 -303 2
-20 22 -93 44 -162 64 -197 103 -358 109 -447 5 -69 3 -87 -15 -125 -12 -24
-29 -79 -37 -123 -29 -143 -69 -215 -193 -340 -104 -105 -122 -149 -82 -196
l20 -24 -6 39 c-6 36 -5 38 16 31 30 -9 94 52 125 120 26 58 55 92 113 130 33
22 48 26 76 21 34 -7 34 -7 76 -139 62 -194 79 -234 107 -252 43 -28 72 5 40
44 -19 23 -45 108 -51 171 -4 30 -14 88 -23 128 -15 66 -15 74 -1 88 14 14 23
15 70 4 29 -6 67 -16 83 -22 17 -5 55 -16 85 -23 30 -7 69 -20 85 -29 17 -9
35 -16 41 -16 6 0 17 -7 24 -15 7 -8 27 -17 46 -21 27 -5 40 -15 57 -45 43
-77 103 -28 62 50 -9 19 -48 53 -98 86 -45 29 -98 70 -117 90 -19 20 -64 54
-100 75 -43 25 -81 58 -110 95 -25 31 -61 64 -80 73 -47 23 -82 95 -115 241
-41 177 -55 230 -82 306 -14 39 -33 98 -42 132 -10 35 -20 66 -24 69 -4 4 -7
69 -7 145 0 114 3 140 15 147 9 4 23 35 31 67 13 49 14 66 3 104 -7 25 -13 77
-13 116 l-1 70 41 -1 c28 0 58 -10 90 -31 58 -37 184 -81 251 -89 69 -8 130
-23 188 -46 28 -12 82 -25 120 -31 108 -16 614 -27 762 -17 68 5 74 3 99 -21
15 -16 30 -46 37 -75 12 -60 13 -76 2 -186 -7 -84 -7 -90 17 -125 14 -21 31
-56 38 -78 7 -22 20 -49 30 -60 31 -37 227 -359 276 -455 27 -52 59 -106 72
-118 25 -26 308 -555 477 -892 l107 -215 -17 -100 c-26 -149 -47 -194 -145
-315 -63 -77 -129 -204 -114 -220 3 -3 19 11 35 30 30 35 61 68 99 105 32 31
117 131 136 159 26 41 121 93 191 106 51 9 78 8 144 -5 45 -8 98 -15 118 -15
20 0 67 -14 105 -30 63 -27 71 -28 86 -15 13 12 23 13 44 5 58 -22 111 -3 90
32 -11 17 -84 46 -163 63 -40 10 -94 26 -120 38 l-46 21 35 6 c19 4 69 13 110
20 115 19 142 27 190 58 25 16 57 32 72 35 38 10 60 35 56 66 -3 22 -7 26 -33
23 -16 -2 -74 -3 -128 -3 -108 1 -204 -17 -270 -51 -76 -39 -114 -40 -183 -7
-34 16 -70 29 -81 29 -23 0 -58 31 -78 70 -8 15 -49 77 -90 136 -41 59 -75
116 -75 127 0 17 -83 163 -147 257 -12 19 -23 41 -23 48 0 8 -15 37 -34 65
-19 29 -41 69 -50 91 -9 21 -35 68 -59 105 -43 65 -55 88 -117 226 -17 39 -48
97 -69 130 -21 33 -53 86 -72 117 -19 32 -60 95 -91 141 -51 74 -57 87 -51
120 5 31 12 40 49 57 45 22 69 59 94 150 6 25 40 119 75 210 34 91 70 188 79
215 9 28 24 59 34 71 31 38 190 144 362 241 70 40 118 80 273 233 159 156 201
203 264 300 42 63 124 187 183 275 68 102 111 178 120 210 7 28 28 83 47 123
19 40 35 83 37 95 1 12 5 29 9 37 3 8 8 35 10 60 2 25 9 70 15 100 6 30 16
120 22 200 11 156 24 287 42 417 6 48 8 121 4 176 -5 78 -13 109 -46 187 -22
51 -46 100 -54 109 -7 9 -27 43 -43 76 -17 33 -55 110 -86 172 -31 62 -61 132
-68 155 -6 24 -35 103 -65 177 -60 146 -84 239 -108 406 -23 168 -24 185 -15
404 l9 203 57 106 c32 58 72 131 88 161 38 68 81 97 393 267 208 113 248 156
215 225 -25 53 -68 67 -240 76 -186 9 -352 -43 -468 -147 -74 -67 -158 -131
-199 -152 -46 -23 -182 -68 -208 -68 -17 0 -184 -54 -383 -124 -143 -50 -233
-60 -368 -41 -60 8 -122 22 -140 31 -56 29 -200 74 -237 74 -20 0 -63 -9 -96
-21 -32 -12 -65 -21 -71 -22 -7 0 -13 -5 -13 -10 0 -6 -3 -7 -7 -4 -3 4 2 16
11 26 12 13 15 27 11 40 -11 37 -94 67 -110 41 -4 -6 -10 -8 -15 -5 -4 2 -18
-4 -31 -14 -59 -45 -149 -83 -149 -62 0 3 22 26 50 51 56 51 60 69 39 160 -15
70 -9 95 36 143 25 27 35 46 35 70 0 30 -21 73 -44 89 -5 4 -15 25 -22 48 -10
35 -10 39 2 29 8 -7 14 -7 14 -1 0 20 -30 34 -60 28 -17 -3 -82 -31 -146 -62
-99 -49 -127 -69 -197 -138 -45 -45 -115 -103 -155 -130 -41 -27 -98 -72 -127
-100 -29 -28 -81 -78 -115 -111 -63 -61 -151 -171 -205 -255 -76 -119 -173
-262 -225 -330 -67 -89 -91 -134 -156 -295 -26 -66 -56 -133 -65 -150 -10 -16
-33 -58 -51 -92 -18 -34 -49 -83 -68 -109 -19 -26 -39 -55 -44 -63 -41 -71
-64 -123 -71 -161 -14 -71 -117 -210 -155 -210 -21 0 -45 31 -55 71 -3 14 -18
38 -32 53 -33 36 -93 114 -93 122 0 3 -47 69 -103 147 -57 78 -169 241 -249
362 -230 348 -406 580 -787 1039 -94 114 -179 226 -196 261 -36 71 -174 280
-269 409 -36 49 -71 106 -76 127 -6 21 -14 41 -19 43 -5 3 -20 29 -34 58 -36
77 -261 397 -310 441 -23 20 -49 43 -57 51 -8 7 -54 58 -102 113 -69 80 -99
106 -145 128 -72 34 -164 42 -242 20z m424 -1610 c105 -150 128 -194 70 -130
-40 44 -205 286 -205 300 0 18 39 -31 135 -170z m4345 -279 c0 -2 -34 -28 -76
-58 -42 -29 -121 -88 -176 -131 -55 -44 -102 -77 -104 -74 -3 3 10 25 28 49
38 51 247 196 304 211 10 2 20 5 22 6 1 0 2 -1 2 -3z m1365 -181 c-48 -42 -74
-61 -167 -122 -78 -51 -356 -349 -489 -523 -59 -78 -145 -182 -205 -252 -206
-233 -283 -317 -320 -351 -24 -21 -75 -87 -115 -148 -45 -68 -75 -106 -80 -98
-4 8 -9 4 -14 -10 -6 -21 -66 -97 -116 -148 -12 -13 -37 -25 -55 -29 -18 -3
-44 -16 -57 -28 -13 -11 -31 -22 -41 -24 -13 -2 -15 2 -10 22 9 36 -11 33 -26
-4 -18 -44 -34 -38 -26 11 5 34 4 40 -8 36 -9 -4 -22 3 -31 16 -14 21 -16 21
-44 4 -36 -21 -51 -22 -51 -2 0 9 -7 30 -16 47 -12 22 -19 27 -27 19 -15 -15
-27 -14 -27 4 0 8 -5 15 -11 15 -6 0 -8 7 -5 16 3 8 2 12 -4 9 -6 -3 -10 -1
-10 5 0 6 -12 3 -27 -7 -23 -15 -26 -15 -15 -2 11 14 8 17 -18 22 -17 4 -30
13 -30 21 0 10 -6 13 -15 9 -10 -3 -26 6 -44 26 -15 17 -33 31 -39 31 -20 0
-13 16 13 30 30 16 32 60 1 60 -19 0 -19 0 0 21 10 11 18 31 19 44 0 13 9 30
19 38 23 17 14 37 -16 37 l-22 0 22 20 c23 22 29 50 11 50 -12 0 -6 25 22 87
11 23 19 44 19 47 0 3 48 52 107 108 59 57 160 155 224 219 64 64 150 141 190
170 41 29 93 68 116 87 37 29 46 32 80 26 21 -4 43 -10 48 -14 6 -4 34 -15 64
-25 43 -14 75 -17 155 -12 112 6 159 21 221 72 45 36 79 55 151 83 83 33 92
35 64 17 -15 -10 -18 -14 -7 -11 10 3 22 6 27 6 5 0 15 6 22 13 26 25 605 306
633 307 5 0 -13 -20 -40 -45z m-1095 -4 c0 -10 -6 -23 -12 -28 -17 -13 -78
-16 -78 -4 0 11 60 51 78 51 6 0 12 -8 12 -19z m80 -116 c0 -14 -48 -45 -70
-45 -5 0 -10 7 -10 15 0 8 8 15 18 15 10 0 27 7 38 15 24 18 24 18 24 0z"/>
</g>
</svg>
